<?xml version="1.0" encoding="utf-8"?>
<svg viewBox="67.921 5.398 358.655 252.584" xmlns="http://www.w3.org/2000/svg" xmlns:xlink="http://www.w3.org/1999/xlink" xmlns:bx="https://boxy-svg.com">
  <defs>	
    <pattern id="pattern-0" x="0" y="0" width="25" height="25" patternUnits="userSpaceOnUse" viewBox="0 0 100 100">
      <rect x="0" y="0" width="50" height="100" style="fill: rgba(0, 42, 255, 0.2);"/>
    </pattern>
    <pattern id="pattern-0-2" patternTransform="matrix(0.608529, 0.697121, -1.306269, 1.140269, 249.072205, 71.296379)" xlink:href="#pattern-0"/>
  </defs>
  <rect x="120.571" y="-13.181" width="252.369" height="204.229" style="stroke-dasharray: 8px; fill-opacity: 0.02; fill: rgb(7, 0, 237);"/>
  <rect x="121.691" y="-13.181" width="252.369" height="204.229" style="stroke-dasharray: 8px; stroke: rgb(91, 85, 218); fill: url(#pattern-0-2); fill-opacity: 0.27;"/>
  <rect x="190.502" y="181.031" width="114.748" height="56.258" style="fill: rgb(91, 143, 255); stroke: rgb(85, 114, 218);"/>
  <g transform="matrix(1, 0, 0, 1, 288.068756, -114.416054)">
    <path d="M 36.423 269.039 L 36.423 299.523" style="stroke: rgb(0, 0, 0);"/>
    <path d="M 36.424 262.594 L 39.947 270.625 L 32.9 270.625 L 36.424 262.594 Z"/>
    <path d="M 36.423 294.594 L 39.946 302.625 L 32.899 302.625 L 36.423 294.594 Z" transform="matrix(-1, 0, 0, -1, 72.844992, 597.219005)"/>
  </g>
  <g transform="matrix(0, 1.000001, -1.000001, 0, 426.235565, 86.665977)">
    <path d="M 36.423 269.039 L 36.423 299.523" style="stroke: rgb(0, 0, 0);"/>
    <path d="M 36.424 262.594 L 39.947 270.625 L 32.9 270.625 L 36.424 262.594 Z"/>
    <path d="M 36.423 294.594 L 39.946 302.625 L 32.899 302.625 L 36.423 294.594 Z" transform="matrix(-1, 0, 0, -1, 72.844992, 597.219005)"/>
  </g>
  <text style="fill: rgb(51, 51, 51); font-size: 13px; white-space: pre;" x="332.027" y="172.21">200px</text>
  <text style="fill: rgb(51, 51, 51); font-size: 13px; white-space: pre;" x="127.406" y="115.71">200px</text>
  <rect x="166.103" y="-153.565" width="163.546" height="297.129" style="stroke-dasharray: 5px; stroke: rgb(255, 63, 63); fill-rule: evenodd; fill: rgb(255, 255, 255);"/>
  <text style="fill: rgb(16, 16, 16); font-size: 24px; white-space: pre;" x="203.331" y="62.422">viewport</text>
  <text style="fill: rgb(255, 255, 255); font-size: 24px; white-space: pre;" x="217.116" y="216.611">image</text>
</svg>